<?xml version="1.0" standalone="no"?>
<!DOCTYPE svg PUBLIC "-//W3C//DTD SVG 20010904//EN"
 "http://www.w3.org/TR/2001/REC-SVG-20010904/DTD/svg10.dtd">
<svg version="1.0" xmlns="http://www.w3.org/2000/svg"
 width="512.000000pt" height="512.000000pt" viewBox="0 0 512.000000 512.000000"
 preserveAspectRatio="xMidYMid meet">
<metadata>
Created by potrace 1.11, written by Peter Selinger 2001-2013
</metadata>
<g transform="translate(0.000000,512.000000) scale(0.100000,-0.100000)"
fill="#000000" stroke="none">
<path d="M2879 4077 c-132 -90 -219 -167 -219 -193 0 -23 35 -16 79 16 35 26
48 30 77 24 34 -6 118 -43 101 -44 -5 0 11 -16 34 -36 24 -20 54 -50 66 -67
13 -17 26 -33 31 -36 4 -3 23 -26 42 -51 19 -25 72 -81 118 -126 72 -69 83
-84 77 -104 -6 -18 -1 -28 21 -46 16 -13 34 -23 41 -24 6 0 14 -6 16 -12 3 -7
6 -1 6 15 1 31 -69 205 -104 258 -13 20 -43 76 -68 125 -25 50 -61 109 -81
133 -20 24 -36 44 -36 46 0 2 11 27 25 57 45 96 30 118 -78 117 -70 0 -74 -2
-148 -52z"/>
<path d="M2535 3834 c-33 -19 -76 -49 -95 -65 l-35 -31 67 36 c37 19 76 43 86
53 10 10 27 23 38 30 10 6 14 12 9 12 -6 1 -37 -15 -70 -35z"/>
<path d="M2678 3843 c-19 -21 -98 -189 -98 -208 0 -21 107 -76 119 -61 12 14
113 228 109 230 -2 1 -17 11 -34 23 -47 33 -77 38 -96 16z"/>
<path d="M2543 3518 c-20 -32 -73 -143 -73 -154 0 -13 89 -54 118 -54 21 0 33
23 53 100 6 25 16 51 21 58 13 15 14 15 -46 41 -57 25 -62 25 -73 9z"/>
<path d="M1975 3444 c-27 -18 -57 -34 -68 -34 -27 0 -161 -84 -187 -117 -14
-17 -20 -41 -20 -73 0 -56 26 -148 48 -173 20 -23 18 -27 -89 -159 -172 -212
-237 -354 -215 -472 6 -33 112 -206 134 -220 6 -4 10 17 11 56 0 35 5 117 12
183 11 123 14 132 100 347 21 53 40 106 42 118 2 12 8 25 15 28 18 12 43 100
37 135 -3 19 2 54 13 87 18 52 21 55 60 63 27 5 42 14 42 23 0 8 7 17 15 20 8
4 15 14 15 24 0 11 5 22 10 25 6 4 8 11 5 16 -4 5 -1 9 5 9 6 0 9 4 5 9 -3 5
-1 12 4 16 5 3 16 18 23 33 8 15 22 39 32 54 26 40 5 41 -49 2z"/>
<path d="M2398 3195 c-41 -94 -38 -109 23 -140 44 -23 54 -24 71 -13 17 12 78
138 78 163 0 10 -107 55 -131 55 -8 0 -26 -29 -41 -65z"/>
<path d="M1890 3195 c-10 -12 -10 -15 4 -15 9 0 16 7 16 15 0 8 -2 15 -4 15
-2 0 -9 -7 -16 -15z"/>
<path d="M2287 2987 c-8 -12 -33 -60 -56 -106 -48 -94 -47 -95 29 -131 50 -23
51 -24 70 -4 28 28 111 184 105 195 -8 12 -107 69 -121 69 -7 0 -18 -10 -27
-23z"/>
<path d="M2096 2645 c-25 -36 -46 -77 -46 -90 0 -31 33 -53 93 -61 44 -6 47
-5 59 22 7 16 28 53 47 82 19 29 32 54 30 55 -26 21 -102 57 -118 57 -13 0
-35 -22 -65 -65z"/>
<path d="M2825 2638 c-37 -13 -121 -73 -128 -92 -4 -9 15 -26 52 -48 l58 -34
27 23 c15 13 38 23 52 23 21 0 30 11 54 62 27 57 28 63 12 70 -25 10 -93 8
-127 -4z"/>
<path d="M3016 2554 c-14 -31 -26 -59 -26 -63 1 -3 14 -21 29 -39 l29 -34 59
13 c32 7 62 15 66 19 19 17 -55 120 -104 145 l-28 15 -25 -56z"/>
<path d="M2002 2433 c-11 -29 -7 -212 6 -225 8 -8 26 -5 69 13 l58 25 0 83 0
83 -60 19 c-33 10 -61 19 -63 19 -1 0 -6 -8 -10 -17z"/>
<path d="M2622 2403 c-17 -27 -40 -62 -51 -79 l-21 -31 60 -42 59 -42 24 38
c31 49 67 120 67 132 0 8 -90 71 -102 71 -3 0 -19 -21 -36 -47z"/>
<path d="M3115 2340 l-61 -19 -22 -68 c-16 -49 -18 -69 -10 -74 19 -12 132
-29 139 -21 24 27 43 203 22 201 -5 0 -35 -9 -68 -19z"/>
<path d="M2439 2186 c-50 -33 -59 -54 -59 -132 0 -52 5 -53 86 -23 54 20 144
96 144 120 0 13 -91 69 -109 68 -9 -1 -37 -15 -62 -33z"/>
<path d="M2098 2152 c-32 -15 -58 -32 -58 -38 0 -7 18 -28 41 -47 40 -35 80
-49 172 -62 l47 -7 0 33 c0 19 3 50 6 70 6 36 5 37 -32 44 -21 3 -51 13 -66
21 -35 18 -42 17 -110 -14z"/>
<path d="M2942 2028 c-45 -95 -45 -98 35 -128 61 -23 56 -26 111 88 25 53 36
85 28 87 -31 10 -120 35 -127 35 -3 0 -25 -37 -47 -82z"/>
<path d="M2830 1784 c-17 -36 -30 -72 -30 -80 0 -12 87 -64 107 -64 8 0 74
128 73 142 0 6 -105 68 -115 68 -3 0 -19 -30 -35 -66z"/>
<path d="M2597 1675 c-4 -9 -7 -41 -7 -71 l0 -54 -67 2 -68 3 -6 -60 c-3 -33
-4 -72 -1 -87 4 -27 7 -28 68 -28 l64 0 0 -64 0 -65 48 -6 c87 -13 87 -13 90
20 1 17 5 44 7 61 l6 32 49 -16 c84 -27 110 1 110 120 0 42 -5 45 -103 57
l-52 6 0 72 c0 39 -3 74 -6 77 -3 3 -33 9 -66 12 -51 6 -61 4 -66 -11z"/>
<path d="M2273 1180 c-36 -15 -42 -91 -9 -112 33 -22 236 16 236 44 0 5 -4 7
-9 4 -13 -8 -128 30 -161 54 -15 11 -30 20 -32 19 -1 0 -13 -4 -25 -9z"/>
<path d="M2196 1117 c3 -10 9 -15 12 -12 3 3 0 11 -7 18 -10 9 -11 8 -5 -6z"/>
<path d="M2890 1111 c0 -21 13 -41 26 -41 20 0 30 30 13 41 -18 11 -39 11 -39
0z"/>
<path d="M2616 1071 c-15 -24 88 -66 118 -49 16 9 16 11 -1 23 -11 8 -24 10
-34 5 -10 -6 -26 -2 -47 10 -17 11 -34 16 -36 11z"/>
</g>
</svg>
